<svg width="34" height="34" viewBox="0 0 34 34" fill="none" xmlns="http://www.w3.org/2000/svg">
<path d="M19.0312 14.2902C19.032 14.4696 19.1036 14.6414 19.2304 14.7682C19.3572 14.8951 19.5291 14.9667 19.7084 14.9674H32.5817C32.5817 11.3736 31.154 7.92701 28.6128 5.38582C26.0716 2.84462 22.625 1.41699 19.0312 1.41699V14.2902Z" fill="url(#paint0_linear_18_8752)"/>
<path d="M28.62 27.2601C29.8794 26.0028 30.8778 24.509 31.5578 22.8645C32.2379 21.22 32.5861 19.4573 32.5824 17.6777H19.7092C19.3366 17.6777 19.2473 17.8931 19.5108 18.1566L28.62 27.2601Z" fill="url(#paint1_radial_18_8752)"/>
<path d="M14.9664 5.48242C12.738 5.48243 10.5439 6.03203 8.57866 7.08252C6.61338 8.13302 4.93752 9.65198 3.69952 11.5049C2.46151 13.3578 1.69959 15.4874 1.48123 17.7051C1.26287 19.9228 1.59482 22.1601 2.44768 24.2188C3.30053 26.2776 4.64797 28.0942 6.37062 29.5078C8.09328 30.9215 10.138 31.8884 12.3236 32.323C14.5092 32.7577 16.7683 32.6465 18.9007 31.9995C21.0331 31.3525 22.9731 30.1896 24.5487 28.6138L15.4452 19.5103C15.1586 19.1907 14.9896 18.7829 14.9664 18.3543V5.48242Z" fill="#AF3900"/>
<path d="M8.19053 25.4427C6.52261 24.4795 5.07958 23.1712 3.95795 21.6054C2.83632 20.0397 2.06194 18.2524 1.68661 16.3633C1.11695 19.2136 1.47896 22.1716 2.71918 24.8005C3.9594 27.4293 6.0121 29.5897 8.57417 30.9626C11.1362 32.3355 14.0719 32.8481 16.9476 32.4248C19.8233 32.0015 22.4867 30.6647 24.5445 28.6118L21.4987 25.5659C19.4574 26.6927 17.1599 27.2734 14.8284 27.2518C12.497 27.2302 10.2106 26.607 8.19053 25.4427Z" fill="url(#paint2_linear_18_8752)"/>
<defs>
<linearGradient id="paint0_linear_18_8752" x1="25.8065" y1="1.41699" x2="25.8065" y2="14.9674" gradientUnits="userSpaceOnUse">
<stop offset="0.355769" stop-color="#FF892F"/>
</linearGradient>
<radialGradient id="paint1_radial_18_8752" cx="0" cy="0" r="1" gradientTransform="matrix(15.8613 13.4889 -33.5301 20.705 16.3075 14.7293)" gradientUnits="userSpaceOnUse">
<stop stop-color="#FAB500"/>
<stop offset="0.535" stop-color="#FE8401"/>
<stop offset="1" stop-color="#FB5937"/>
</radialGradient>
<linearGradient id="paint2_linear_18_8752" x1="12.9842" y1="16.3633" x2="12.9842" y2="32.5693" gradientUnits="userSpaceOnUse">
<stop offset="0.355769" stop-color="#FF892F"/>
</linearGradient>
</defs>
</svg>
