<svg width="20" height="20" viewBox="0 0 20 20" fill="none" xmlns="http://www.w3.org/2000/svg">
<path d="M10 13.3333C9.54167 13.3333 9.14944 13.1703 8.82333 12.8442C8.49722 12.5181 8.33389 12.1256 8.33333 11.6667C8.33278 11.2078 8.49611 10.8156 8.82333 10.49C9.15056 10.1644 9.54278 10.0011 10 10C10.4572 9.99889 10.8497 10.1622 11.1775 10.49C11.5053 10.8178 11.6683 11.21 11.6667 11.6667C11.665 12.1233 11.5019 12.5158 11.1775 12.8442C10.8531 13.1725 10.4606 13.3356 10 13.3333ZM6.14583 5.83333H13.8542L14.9167 3.70833C15.0556 3.43056 15.045 3.15972 14.885 2.89583C14.725 2.63194 14.4856 2.5 14.1667 2.5H5.83333C5.51389 2.5 5.27444 2.63194 5.115 2.89583C4.95556 3.15972 4.945 3.43056 5.08333 3.70833L6.14583 5.83333ZM7 17.5H13C14.25 17.5 15.3125 17.0661 16.1875 16.1983C17.0625 15.3306 17.5 14.2644 17.5 13C17.5 12.4722 17.4097 11.9583 17.2292 11.4583C17.0486 10.9583 16.7917 10.5069 16.4583 10.1042L14.2917 7.5H5.70833L3.54167 10.1042C3.20833 10.5069 2.95139 10.9583 2.77083 11.4583C2.59028 11.9583 2.5 12.4722 2.5 13C2.5 14.2639 2.93417 15.33 3.8025 16.1983C4.67083 17.0667 5.73667 17.5006 7 17.5Z" fill="url(#paint0_linear_18_10413)"/>
<defs>
<linearGradient id="paint0_linear_18_10413" x1="10" y1="2.5" x2="10" y2="17.5" gradientUnits="userSpaceOnUse">
<stop offset="0.355769" stop-color="#FF892F"/>
</linearGradient>
</defs>
</svg>
