<svg width="34" height="34" viewBox="0 0 34 34" fill="none" xmlns="http://www.w3.org/2000/svg">
<g clip-path="url(#clip0_18_8760)">
<path fill-rule="evenodd" clip-rule="evenodd" d="M23.4005 23.5013C23.6261 23.2755 23.8939 23.0964 24.1887 22.9742C24.4835 22.852 24.7996 22.7891 25.1187 22.7891C25.4379 22.7891 25.7539 22.852 26.0487 22.9742C26.3435 23.0964 26.6114 23.2755 26.8369 23.5013L32.5854 29.2498C33.0411 29.7051 33.2972 30.3229 33.2974 30.9671C33.2977 31.6113 33.042 32.2293 32.5866 32.685C32.1312 33.1407 31.5135 33.3968 30.8692 33.397C30.225 33.3973 29.6071 33.1416 29.1514 32.6862L23.4005 26.9329C22.9452 26.4775 22.6895 25.8599 22.6895 25.2159C22.6895 24.5719 22.9452 23.9543 23.4005 23.4989V23.5013Z" fill="#AF3900"/>
<path d="M15.8836 0.602539C11.1795 0.602539 7.34479 1.93097 4.68794 4.5854C2.03108 7.24711 0.705078 11.0794 0.705078 15.7835C0.705078 20.4877 2.03108 24.3224 4.68794 26.9793C7.34479 29.6361 11.1795 30.9621 15.8836 30.9621C20.5878 30.9621 24.4201 29.6361 27.0794 26.9793C29.7338 24.3224 31.0622 20.4877 31.0622 15.7835C31.0622 11.0794 29.7338 7.24711 27.0794 4.58782C24.4176 1.9334 20.5854 0.604968 15.8836 0.604968V0.602539Z" fill="url(#paint0_linear_18_8760)"/>
<path fill-rule="evenodd" clip-rule="evenodd" d="M15.8839 7.0625C16.367 7.0625 16.8303 7.2544 17.1719 7.59598C17.5135 7.93757 17.7054 8.40086 17.7054 8.88393V15.1739H24.3839C24.867 15.1739 25.3303 15.3658 25.6719 15.7074C26.0135 16.049 26.2054 16.5123 26.2054 16.9954C26.2054 17.4784 26.0135 17.9417 25.6719 18.2833C25.3303 18.6249 24.867 18.8168 24.3839 18.8168H15.8839C15.4009 18.8168 14.9376 18.6249 14.596 18.2833C14.2544 17.9417 14.0625 17.4784 14.0625 16.9954V8.88393C14.0625 8.40086 14.2544 7.93757 14.596 7.59598C14.9376 7.2544 15.4009 7.0625 15.8839 7.0625Z" fill="#AF3900"/>
</g>
<defs>
<linearGradient id="paint0_linear_18_8760" x1="15.8836" y1="0.602539" x2="15.8836" y2="30.9621" gradientUnits="userSpaceOnUse">
<stop offset="0.355769" stop-color="#FF892F"/>
</linearGradient>
<clipPath id="clip0_18_8760">
<rect width="34" height="34" fill="white"/>
</clipPath>
</defs>
</svg>
