<svg width="20" height="20" viewBox="0 0 20 20" fill="none" xmlns="http://www.w3.org/2000/svg">
<path fill-rule="evenodd" clip-rule="evenodd" d="M3.38665 1.04199H6.51248C6.63961 1.04199 6.76371 1.08076 6.86824 1.15312C6.97276 1.22548 7.05273 1.328 7.09748 1.44699L8.31082 4.67199C8.35081 4.77864 8.36089 4.89419 8.33998 5.00616L7.73165 8.26616C8.47915 10.0228 9.71332 11.2037 11.7591 12.2628L14.98 11.6378C15.0944 11.6158 15.2128 11.6262 15.3216 11.6678L18.5566 12.9012C18.6749 12.9462 18.7767 13.0261 18.8486 13.1303C18.9204 13.2344 18.959 13.3579 18.9591 13.4845V16.4712C18.9591 17.8262 17.7658 18.9253 16.3691 18.6212C13.825 18.0678 9.11081 16.6603 5.80915 13.3587C2.64581 10.1962 1.58581 5.82783 1.22998 3.46699C1.02581 2.11866 2.10665 1.04199 3.38665 1.04199Z" fill="url(#paint0_linear_18_10443)"/>
<defs>
<linearGradient id="paint0_linear_18_10443" x1="10.0821" y1="1.04199" x2="10.0821" y2="18.6722" gradientUnits="userSpaceOnUse">
<stop offset="0.355769" stop-color="#FF892F"/>
</linearGradient>
</defs>
</svg>
