<svg width="34" height="34" viewBox="0 0 34 34" fill="none" xmlns="http://www.w3.org/2000/svg">
<path d="M4.21567 29.046C5.80638 30.7217 8.27138 31.5717 11.5378 31.5717C14.8042 31.5717 17.2692 30.7217 18.86 29.046C20.7081 27.091 20.6486 24.7316 20.645 24.5726V24.5653C20.645 23.0717 19.4307 21.8574 17.9371 21.8574H5.13852C3.64495 21.8574 2.43067 23.0717 2.43067 24.5167V24.5325C2.42581 24.7632 2.37967 27.1031 4.21567 29.046Z" fill="url(#paint0_linear_18_8767)"/>
<path d="M11.5357 20.0363C10.168 20.0331 8.85721 19.4883 7.89008 18.5212C6.92295 17.5541 6.37821 16.2433 6.375 14.8756C6.37821 13.5078 6.92295 12.1971 7.89008 11.2299C8.85721 10.2628 10.168 9.71805 11.5357 9.71484C12.9034 9.71805 14.2142 10.2628 15.1813 11.2299C16.1485 12.1971 16.6932 13.5078 16.6964 14.8756C16.6932 16.2433 16.1485 17.5541 15.1813 18.5212C14.2142 19.4883 12.9034 20.0331 11.5357 20.0363Z" fill="url(#paint1_linear_18_8767)"/>
<path d="M21.5536 17.0001C21.3957 17.0001 21.2257 16.9759 21.0679 16.9273C20.7659 16.8253 20.5037 16.6308 20.3184 16.3715C20.1332 16.1121 20.0343 15.801 20.0357 15.4823V13.3451C18.3357 13.1873 17 11.7544 17 10.018V5.768C17 3.92228 18.4936 2.42871 20.3393 2.42871H28.2321C30.0779 2.42871 31.5714 3.92228 31.5714 5.768V10.018C31.5714 11.8637 30.0779 13.3573 28.2321 13.3573H25.0507L22.7679 16.393C22.4764 16.7816 22.0271 17.0001 21.5536 17.0001Z" fill="url(#paint2_radial_18_8767)"/>
<defs>
<linearGradient id="paint0_linear_18_8767" x1="11.5378" y1="21.8574" x2="11.5378" y2="31.5717" gradientUnits="userSpaceOnUse">
<stop offset="0.355769" stop-color="#FF892F"/>
</linearGradient>
<linearGradient id="paint1_linear_18_8767" x1="11.5357" y1="9.71484" x2="11.5357" y2="20.0363" gradientUnits="userSpaceOnUse">
<stop offset="0.355769" stop-color="#FF892F"/>
</linearGradient>
<radialGradient id="paint2_radial_18_8767" cx="0" cy="0" r="1" gradientUnits="userSpaceOnUse" gradientTransform="translate(13.6369 -2.05489) rotate(49.565) scale(26.949 48.5443)">
<stop stop-color="#FAB500"/>
<stop offset="0.535" stop-color="#FE8401"/>
<stop offset="1" stop-color="#FB5937"/>
</radialGradient>
</defs>
</svg>
